<?xml version="1.0" encoding="UTF-8"?>
<svg width="181px" height="93px" viewBox="0 0 181 93" version="1.1" xmlns="http://www.w3.org/2000/svg" xmlns:xlink="http://www.w3.org/1999/xlink">
    <!-- Generator: Sketch 41.1 (35376) - http://www.bohemiancoding.com/sketch -->
    <title>Group 38</title>
    <desc>Created with Sketch.</desc>
    <defs></defs>
    <g id="Page-1" stroke="none" stroke-width="1" fill="none" fill-rule="evenodd">
        <g id="Group-38">
            <path d="M180.79,25.9297 L180.79,32.0067 C165.872,32.0067 153.733,44.1447 153.733,59.0627 L147.657,59.0627 C147.657,40.7927 162.52,25.9297 180.79,25.9297" id="Fill-10" fill="#BE202E"></path>
            <path d="M27.2666,59.0625 C27.2666,73.9805 15.1276,86.1185 0.2096,86.1185 L0.2096,92.1955 C18.4796,92.1955 33.3426,77.3325 33.3426,59.0625 L27.2666,59.0625 Z" id="Fill-11" fill="#BE202E"></path>
            <path d="M60.4072,25.9297 C42.1372,25.9297 27.2732,40.7927 27.2732,59.0627 L33.3502,59.0627 C33.3502,44.1447 45.4882,32.0067 60.4072,32.0067 C75.3262,32.0067 87.4632,44.1447 87.4632,59.0627 C87.4632,54.1247 88.5562,49.4407 90.5012,45.2267 C85.2492,33.8487 73.7392,25.9297 60.4072,25.9297" id="Fill-12" fill="#BE202E"></path>
            <path d="M93.54,59.0625 C93.54,77.3325 78.677,92.1955 60.407,92.1955 C42.138,92.1955 27.273,77.3325 27.273,59.0625 L33.351,59.0625 C33.351,73.9805 45.488,86.1185 60.407,86.1185 C75.326,86.1185 87.463,73.9805 87.463,59.0625 L93.54,59.0625 Z" id="Fill-13" fill="#1A1F46"></path>
            <path d="M93.54,59.0625 C93.54,77.3325 78.677,92.1955 60.407,92.1955 C42.138,92.1955 27.273,77.3325 27.273,59.0625 L33.351,59.0625 C33.351,73.9805 45.488,86.1185 60.407,86.1185 C75.326,86.1185 87.463,73.9805 87.463,59.0625 L93.54,59.0625 Z" id="Fill-14" fill="#1A1F46"></path>
            <polygon id="Fill-15" fill="#1A1F46" points="44.562 82.492 38.486 82.492 38.486 57.869 44.562 57.869"></polygon>
            <polygon id="Fill-16" fill="#1A1F46" points="36.1494 60.0752 41.5234 50.7642 46.8984 60.0752"></polygon>
            <polygon id="Fill-17" fill="#1A1F46" points="57.037 90.505 50.961 90.505 50.961 9 57.037 9"></polygon>
            <polygon id="Fill-18" fill="#1A1F46" points="48.624 9.6523 53.999 0.3413 59.375 9.6523"></polygon>
            <polygon id="Fill-19" fill="#1A1F46" points="69.843 88.663 63.766 88.663 63.766 43 69.843 43"></polygon>
            <polygon id="Fill-20" fill="#1A1F46" points="61.4297 44.1445 66.8047 34.8335 72.1797 44.1445"></polygon>
            <polygon id="Fill-21" fill="#1A1F46" points="81.562 83.096 75.486 83.096 75.486 67 81.562 67"></polygon>
            <polygon id="Fill-22" fill="#1A1F46" points="73.1494 68.3721 78.5234 59.0621 83.8984 68.3721"></polygon>
            <polygon id="Fill-23" fill="#BE202E" points="105.135 82.492 99.059 82.492 99.059 57.869 105.135 57.869"></polygon>
            <polygon id="Fill-24" fill="#BE202E" points="96.7217 60.0752 102.0957 50.7642 107.4707 60.0752"></polygon>
            <polygon id="Fill-25" fill="#BE202E" points="117.609 90.505 111.533 90.505 111.533 50.7644 117.609 50.7644"></polygon>
            <polygon id="Fill-26" fill="#BE202E" points="109.1963 51.8066 114.5713 42.4956 119.9463 51.8066"></polygon>
            <polygon id="Fill-27" fill="#BE202E" points="142.133 83.096 136.057 83.096 136.057 54.619 142.133 54.619"></polygon>
            <polygon id="Fill-28" fill="#BE202E" points="133.7207 55.4199 139.0957 46.1089 144.4707 55.4199"></polygon>
            <path d="M120.5957,25.9297 L120.5957,32.0067 C135.5137,32.0067 147.6527,44.1447 147.6527,59.0627 L153.7287,59.0627 C153.7287,40.7927 138.8657,25.9297 120.5957,25.9297" id="Fill-29" fill="#1A1F46"></path>
            <path d="M0.21,25.9297 L0.21,32.0067 C15.128,32.0067 27.267,44.1447 27.267,59.0627 L33.343,59.0627 C33.343,40.7927 18.48,25.9297 0.21,25.9297" id="Fill-30" fill="#1A1F46"></path>
            <path d="M147.6523,59.0625 C147.6523,73.9805 135.5133,86.1185 120.5953,86.1185 L120.5953,92.1955 C138.8653,92.1955 153.7283,77.3325 153.7283,59.0625 L147.6523,59.0625 Z" id="Fill-31" fill="#BE202E"></path>
            <path d="M153.7334,59.0625 C153.7334,73.9805 165.8724,86.1185 180.7904,86.1185 L180.7904,92.1955 C162.5204,92.1955 147.6574,77.3325 147.6574,59.0625 L153.7334,59.0625 Z" id="Fill-32" fill="#1A1F46"></path>
            <path d="M120.5957,32.0068 L120.5957,25.9298 C107.2637,25.9298 95.7527,33.8488 90.5007,45.2268 C92.4467,49.4408 93.5397,54.1248 93.5397,59.0628 C93.5397,44.1448 105.6777,32.0068 120.5957,32.0068" id="Fill-33" fill="#1A1F46"></path>
            <path d="M120.5957,92.1953 L120.5957,86.1183 C105.6777,86.1183 93.5397,73.9803 93.5397,59.0623 L87.4627,59.0623 C87.4627,77.3323 102.3257,92.1953 120.5957,92.1953" id="Fill-34" fill="#BE202E"></path>
            <path d="M87.4629,59.0625 L93.5399,59.0625 C93.5399,54.1255 92.4459,49.4405 90.5009,45.2265 C88.5569,49.4405 87.4629,54.1255 87.4629,59.0625" id="Fill-35" fill="#BE202E"></path>
            <polygon id="Fill-36" fill="#BE202E" points="130.414 88.663 124.338 88.663 124.338 19 130.414 19"></polygon>
            <polygon id="Fill-37" fill="#BE202E" points="122.001 20.5752 127.376 11.2642 132.75 20.5752"></polygon>
            <rect id="Rectangle-2" fill="#BE202E" x="87.4599915" y="59" width="6.07999992" height="1"></rect>
            <rect id="Rectangle" fill="#1A1F46" x="120.299988" y="25.9400024" width="0.5" height="6.05999994"></rect>
            <rect id="Rectangle" fill="#1A1F46" transform="translate(150.690004, 59.250000) rotate(90.000000) translate(-150.690004, -59.250000) " x="150.440004" y="56.22" width="0.5" height="6.05999994"></rect>
            <rect id="Rectangle-Copy" fill="#1A1F46" transform="translate(30.320009, 59.250000) rotate(90.000000) translate(-30.320009, -59.250000) " x="30.0700085" y="56.22" width="0.5" height="6.05999994"></rect>
            <polygon id="Path-2" fill="#BE202E" points="87.5039673 58.5963135 87.0414429 50.4972534 90.447876 45.1473389 91.8364258 48.6494751"></polygon>
        </g>
    </g>
</svg>